# xmcd
#
# Track frame offsets:
#       150
#       19290
#       37160
#       52842
#       77487
#       96082
#       116772
#       135277
#       158317
#       182212
#       204290
#       219485
#       241110
#
# Disc length: 3473 seconds
#
# Revision: 1
# Processed by: cddbd v1.4PL0 Copyright (c) Steve Scherf et al.
# Submitted via: MusiCat 1.1
#
DISCID=9d0d8f0d
DTITLE=Matia Bazar - Sentimentale
DYEAR=1900
DGENRE=
TTITLE0=Ti sento
TTITLE1=Per un'ora d'amore
TTITLE2=Solo tu
TTITLE3=Mi manchi ancora
TTITLE4=Amami
TTITLE5=Souvenir
TTITLE6=Cercami ancora
TTITLE7=Noi
TTITLE8=Stringimi
TTITLE9=Sentimentale
TTITLE10=Stasera che sera
TTITLE11=E dirsi ciao
TTITLE12=I feel you (ti sento)
EXTD=0\n\n\n
EXTT0=
EXTT1=
EXTT2=
EXTT3=
EXTT4=
EXTT5=
EXTT6=
EXTT7=
EXTT8=
EXTT9=
EXTT10=
EXTT11=
EXTT12=
PLAYORDER=
